<svg width="40" height="40" viewBox="0 0 40 40" fill="none" xmlns="http://www.w3.org/2000/svg">
<path d="M8.33332 35L31.6667 35C32.5871 35 33.3333 34.2538 33.3333 33.3333L33.3333 16.6667C33.3333 15.7462 32.5871 15 31.6667 15L8.33332 15C7.41285 15 6.66666 15.7462 6.66666 16.6667L6.66666 33.3333C6.66666 34.2538 7.41285 35 8.33332 35Z" stroke="black" stroke-width="2" stroke-linecap="round" stroke-linejoin="round"/>
<path d="M24.6154 15L24.6154 14L24.6154 14L24.6154 15ZM15.3846 15L15.3846 16L15.3846 16L15.3846 15ZM15 14.6154L14 14.6154L15 14.6154ZM15 10L16 10L15 10ZM25 10L24 10L24 10L25 10ZM25 14.6154L26 14.6154L26 14.6154L25 14.6154ZM20 5L20 6L20 5ZM24.6154 14L15.3846 14L15.3846 16L24.6154 16L24.6154 14ZM16 14.6154L16 10L14 10L14 14.6154L16 14.6154ZM24 10L24 14.6154L26 14.6154L26 10L24 10ZM20 6C22.2091 6 24 7.79086 24 10L26 10C26 6.68629 23.3137 4 20 4L20 6ZM16 10C16 7.79086 17.7909 6 20 6L20 4C16.6863 4 14 6.68629 14 10L16 10ZM15.3846 14C15.7245 14 16 14.2755 16 14.6154L14 14.6154C14 15.3801 14.6199 16 15.3846 16L15.3846 14ZM24.6154 16C25.3801 16 26 15.3801 26 14.6154L24 14.6154C24 14.2755 24.2755 14 24.6154 14L24.6154 16Z" fill="black"/>
</svg>
