<svg width="40" height="40" viewBox="0 0 40 40" fill="none" xmlns="http://www.w3.org/2000/svg">
<path d="M35 16.6668H36C36 16.3632 35.862 16.076 35.625 15.8862L35 16.6668ZM5 16.6668L4.39685 15.8692C4.1469 16.0582 4 16.3535 4 16.6668H5ZM19.3941 5.78244L19.9972 6.58007L19.9972 6.58007L19.3941 5.78244ZM21.441 5.81079L22.066 5.03017L22.066 5.03017L21.441 5.81079ZM34 16.6668V33.3335H36V16.6668H34ZM33.3333 34.0002H6.66667V36.0002H33.3333V34.0002ZM6 33.3335V16.6668H4V33.3335H6ZM5.60315 17.4645L19.9972 6.58007L18.7909 4.9848L4.39685 15.8692L5.60315 17.4645ZM20.816 6.59141L34.375 17.4475L35.625 15.8862L22.066 5.03017L20.816 6.59141ZM19.9972 6.58007C20.2406 6.39604 20.5778 6.40071 20.816 6.59141L22.066 5.03017C21.1133 4.26739 19.7644 4.24871 18.7909 4.98481L19.9972 6.58007ZM6.66667 34.0002C6.29848 34.0002 6 33.7017 6 33.3335H4C4 34.8063 5.19391 36.0002 6.66667 36.0002V34.0002ZM34 33.3335C34 33.7017 33.7015 34.0002 33.3333 34.0002V36.0002C34.8061 36.0002 36 34.8063 36 33.3335H34Z" fill="black"/>
<path d="M5 16.6667L20.4286 26.6667L35 16.6667" stroke="black" stroke-width="2" stroke-linecap="round" stroke-linejoin="round"/>
</svg>
